<?xml version="1.0" encoding="UTF-8"?>
<svg xmlns="http://www.w3.org/2000/svg" xmlns:xlink="http://www.w3.org/1999/xlink" width="14px" height="11px" viewBox="0 0 13 11" version="1.1">
<g id="surface1">
<path style=" stroke:none;fill-rule:nonzero;fill:#fff;fill-opacity:1;" d="M 11.050781 3.4375 L 11.050781 4.8125 L 11.699219 4.8125 L 11.699219 6.1875 L 11.050781 6.1875 L 11.050781 7.5625 L 1.300781 7.5625 L 1.300781 3.4375 L 11.050781 3.4375 M 11.375 2.0625 L 0.976562 2.0625 C 0.4375 2.0625 0 2.523438 0 3.09375 L 0 7.90625 C 0 8.476562 0.4375 8.9375 0.976562 8.9375 L 11.375 8.9375 C 11.914062 8.9375 12.351562 8.476562 12.351562 7.90625 L 12.351562 7.5625 L 12.511719 7.5625 C 12.78125 7.5625 13 7.332031 13 7.046875 L 13 3.953125 C 13 3.667969 12.78125 3.4375 12.511719 3.4375 L 12.351562 3.4375 L 12.351562 3.09375 C 12.351562 2.523438 11.914062 2.0625 11.375 2.0625 Z M 8.449219 4.125 L 1.949219 4.125 L 1.949219 6.875 L 8.449219 6.875 Z M 8.449219 4.125 "/>
</g>
</svg>
