<?xml version="1.0" encoding="UTF-8"?>
<svg xmlns="http://www.w3.org/2000/svg" xmlns:xlink="http://www.w3.org/1999/xlink" width="13px" height="20px" viewBox="0 0 13 20" version="1.1">
<g id="surface1">
<path style=" stroke:none;fill-rule:nonzero;fill:#fff;fill-opacity:1;" d="M 11.050781 0 L 1.949219 0 C 0.875 0 0 0.839844 0 1.875 L 0 18.125 C 0 19.160156 0.875 20 1.949219 20 L 11.050781 20 C 12.125 20 13 19.160156 13 18.125 L 13 1.875 C 13 0.839844 12.125 0 11.050781 0 Z M 6.5 18.75 C 5.78125 18.75 5.199219 18.191406 5.199219 17.5 C 5.199219 16.808594 5.78125 16.25 6.5 16.25 C 7.21875 16.25 7.800781 16.808594 7.800781 17.5 C 7.800781 18.191406 7.21875 18.75 6.5 18.75 Z M 11.050781 14.53125 C 11.050781 14.789062 10.832031 15 10.5625 15 L 2.4375 15 C 2.167969 15 1.949219 14.789062 1.949219 14.53125 L 1.949219 2.34375 C 1.949219 2.085938 2.167969 1.875 2.4375 1.875 L 10.5625 1.875 C 10.832031 1.875 11.050781 2.085938 11.050781 2.34375 Z M 11.050781 14.53125 "/>
</g>
</svg>
