<?xml version="1.0" encoding="UTF-8"?>
<svg xmlns="http://www.w3.org/2000/svg" xmlns:xlink="http://www.w3.org/1999/xlink" width="19px" height="20px" viewBox="0 0 19 19" version="1.1">
<g id="surface1">
<path style=" stroke:none;fill-rule:nonzero;fill:rgb(0%,0%,0%);fill-opacity:1;" d="M 6.355469 14.746094 C 6.355469 14.820312 6.265625 14.882812 6.15625 14.882812 C 6.03125 14.890625 5.941406 14.832031 5.941406 14.746094 C 5.941406 14.671875 6.03125 14.613281 6.140625 14.613281 C 6.253906 14.601562 6.355469 14.660156 6.355469 14.746094 Z M 5.164062 14.582031 C 5.136719 14.65625 5.214844 14.738281 5.328125 14.761719 C 5.429688 14.800781 5.542969 14.761719 5.566406 14.6875 C 5.589844 14.613281 5.515625 14.527344 5.402344 14.496094 C 5.300781 14.46875 5.191406 14.507812 5.164062 14.582031 Z M 6.855469 14.515625 C 6.746094 14.542969 6.667969 14.613281 6.679688 14.699219 C 6.691406 14.773438 6.792969 14.820312 6.90625 14.796875 C 7.019531 14.769531 7.09375 14.699219 7.082031 14.625 C 7.070312 14.554688 6.96875 14.507812 6.855469 14.515625 Z M 9.378906 0.296875 C 4.0625 0.296875 0 4.203125 0 9.351562 C 0 13.46875 2.671875 16.988281 6.492188 18.226562 C 6.984375 18.3125 7.15625 18.019531 7.15625 17.777344 C 7.15625 17.550781 7.144531 16.28125 7.144531 15.5 C 7.144531 15.5 4.460938 16.058594 3.898438 14.394531 C 3.898438 14.394531 3.464844 13.316406 2.835938 13.035156 C 2.835938 13.035156 1.957031 12.453125 2.894531 12.464844 C 2.894531 12.464844 3.851562 12.539062 4.375 13.421875 C 5.214844 14.855469 6.621094 14.441406 7.167969 14.199219 C 7.253906 13.605469 7.503906 13.191406 7.78125 12.949219 C 5.640625 12.71875 3.476562 12.417969 3.476562 8.847656 C 3.476562 7.828125 3.769531 7.3125 4.382812 6.660156 C 4.28125 6.417969 3.957031 5.425781 4.480469 4.140625 C 5.28125 3.898438 7.125 5.144531 7.125 5.144531 C 7.890625 4.933594 8.714844 4.828125 9.53125 4.828125 C 10.347656 4.828125 11.171875 4.933594 11.9375 5.144531 C 11.9375 5.144531 13.777344 3.894531 14.578125 4.140625 C 15.105469 5.429688 14.777344 6.417969 14.679688 6.660156 C 15.292969 7.316406 15.667969 7.828125 15.667969 8.847656 C 15.667969 12.429688 13.410156 12.714844 11.269531 12.949219 C 11.621094 13.242188 11.921875 13.796875 11.921875 14.667969 C 11.921875 15.917969 11.910156 17.46875 11.910156 17.773438 C 11.910156 18.011719 12.085938 18.304688 12.570312 18.21875 C 16.402344 16.988281 19 13.46875 19 9.351562 C 19 4.203125 14.691406 0.296875 9.378906 0.296875 Z M 3.722656 13.097656 C 3.671875 13.132812 3.683594 13.21875 3.75 13.289062 C 3.8125 13.347656 3.898438 13.375 3.949219 13.324219 C 4 13.289062 3.988281 13.203125 3.921875 13.132812 C 3.859375 13.074219 3.773438 13.046875 3.722656 13.097656 Z M 3.308594 12.796875 C 3.28125 12.84375 3.320312 12.902344 3.398438 12.941406 C 3.460938 12.976562 3.535156 12.964844 3.5625 12.914062 C 3.589844 12.867188 3.550781 12.804688 3.472656 12.769531 C 3.398438 12.746094 3.335938 12.757812 3.308594 12.796875 Z M 4.550781 14.117188 C 4.488281 14.164062 4.511719 14.277344 4.601562 14.347656 C 4.6875 14.433594 4.800781 14.441406 4.847656 14.382812 C 4.898438 14.335938 4.875 14.222656 4.800781 14.152344 C 4.714844 14.066406 4.601562 14.058594 4.550781 14.117188 Z M 4.113281 13.570312 C 4.054688 13.609375 4.054688 13.703125 4.113281 13.789062 C 4.175781 13.875 4.277344 13.914062 4.328125 13.875 C 4.390625 13.828125 4.390625 13.730469 4.328125 13.644531 C 4.273438 13.558594 4.175781 13.523438 4.113281 13.570312 Z M 4.113281 13.570312 "/>
</g>
</svg>
