<?xml version="1.0" encoding="UTF-8"?>
<svg xmlns="http://www.w3.org/2000/svg" xmlns:xlink="http://www.w3.org/1999/xlink" width="17px" height="20px" viewBox="0 0 17 19" version="1.1">
<g id="surface1">
<path style=" stroke:none;fill-rule:nonzero;fill: #f09433;fill-opacity:1;" d="M 8.503906 5.234375 C 6.089844 5.234375 4.144531 7.136719 4.144531 9.496094 C 4.144531 11.855469 6.089844 13.761719 8.503906 13.761719 C 10.917969 13.761719 12.863281 11.855469 12.863281 9.496094 C 12.863281 7.136719 10.917969 5.234375 8.503906 5.234375 Z M 8.503906 12.269531 C 6.945312 12.269531 5.667969 11.023438 5.667969 9.496094 C 5.667969 7.96875 6.941406 6.722656 8.503906 6.722656 C 10.066406 6.722656 11.339844 7.96875 11.339844 9.496094 C 11.339844 11.023438 10.0625 12.269531 8.503906 12.269531 Z M 14.058594 5.058594 C 14.058594 5.609375 13.605469 6.050781 13.042969 6.050781 C 12.476562 6.050781 12.023438 5.605469 12.023438 5.058594 C 12.023438 4.507812 12.480469 4.0625 13.042969 4.0625 C 13.605469 4.0625 14.058594 4.507812 14.058594 5.058594 Z M 16.945312 6.066406 C 16.882812 4.734375 16.570312 3.554688 15.574219 2.582031 C 14.578125 1.609375 13.371094 1.304688 12.011719 1.238281 C 10.605469 1.160156 6.398438 1.160156 4.992188 1.238281 C 3.636719 1.300781 2.429688 1.605469 1.429688 2.578125 C 0.433594 3.550781 0.125 4.730469 0.0585938 6.0625 C -0.0234375 7.4375 -0.0234375 11.550781 0.0585938 12.925781 C 0.121094 14.257812 0.433594 15.4375 1.429688 16.410156 C 2.429688 17.382812 3.632812 17.6875 4.992188 17.753906 C 6.398438 17.832031 10.605469 17.832031 12.011719 17.753906 C 13.371094 17.691406 14.578125 17.386719 15.574219 16.410156 C 16.566406 15.4375 16.878906 14.257812 16.945312 12.925781 C 17.027344 11.550781 17.027344 7.441406 16.945312 6.066406 Z M 15.132812 14.398438 C 14.835938 15.125 14.265625 15.6875 13.515625 15.980469 C 12.398438 16.414062 9.742188 16.3125 8.503906 16.3125 C 7.265625 16.3125 4.605469 16.410156 3.492188 15.980469 C 2.746094 15.691406 2.175781 15.128906 1.875 14.398438 C 1.429688 13.304688 1.53125 10.707031 1.53125 9.496094 C 1.53125 8.285156 1.433594 5.683594 1.875 4.59375 C 2.171875 3.867188 2.742188 3.304688 3.492188 3.011719 C 4.609375 2.578125 7.265625 2.679688 8.503906 2.679688 C 9.742188 2.679688 12.402344 2.582031 13.515625 3.011719 C 14.261719 3.304688 14.832031 3.863281 15.132812 4.59375 C 15.578125 5.6875 15.472656 8.285156 15.472656 9.496094 C 15.472656 10.707031 15.578125 13.308594 15.132812 14.398438 Z M 15.132812 14.398438 "/>
</g>
</svg>
