<?xml version="1.0" encoding="UTF-8"?>
<svg xmlns="http://www.w3.org/2000/svg" xmlns:xlink="http://www.w3.org/1999/xlink" width="20px" height="20px" viewBox="0 0 20 20" version="1.1">
<g id="surface1">
<path style=" stroke:none;fill-rule:nonzero;fill:#fff;fill-opacity:1;" d="M 3.125 14.375 L 0.625 14.375 C 0.28125 14.375 0 14.65625 0 15 L 0 17.5 C 0 17.84375 0.28125 18.125 0.625 18.125 L 3.125 18.125 C 3.46875 18.125 3.75 17.84375 3.75 17.5 L 3.75 15 C 3.75 14.65625 3.46875 14.375 3.125 14.375 Z M 3.125 1.875 L 0.625 1.875 C 0.28125 1.875 0 2.15625 0 2.5 L 0 5 C 0 5.34375 0.28125 5.625 0.625 5.625 L 3.125 5.625 C 3.46875 5.625 3.75 5.34375 3.75 5 L 3.75 2.5 C 3.75 2.15625 3.46875 1.875 3.125 1.875 Z M 3.125 8.125 L 0.625 8.125 C 0.28125 8.125 0 8.40625 0 8.75 L 0 11.25 C 0 11.59375 0.28125 11.875 0.625 11.875 L 3.125 11.875 C 3.46875 11.875 3.75 11.59375 3.75 11.25 L 3.75 8.75 C 3.75 8.40625 3.46875 8.125 3.125 8.125 Z M 19.375 15 L 6.875 15 C 6.53125 15 6.25 15.28125 6.25 15.625 L 6.25 16.875 C 6.25 17.21875 6.53125 17.5 6.875 17.5 L 19.375 17.5 C 19.71875 17.5 20 17.21875 20 16.875 L 20 15.625 C 20 15.28125 19.71875 15 19.375 15 Z M 19.375 2.5 L 6.875 2.5 C 6.53125 2.5 6.25 2.78125 6.25 3.125 L 6.25 4.375 C 6.25 4.71875 6.53125 5 6.875 5 L 19.375 5 C 19.71875 5 20 4.71875 20 4.375 L 20 3.125 C 20 2.78125 19.71875 2.5 19.375 2.5 Z M 19.375 8.75 L 6.875 8.75 C 6.53125 8.75 6.25 9.03125 6.25 9.375 L 6.25 10.625 C 6.25 10.96875 6.53125 11.25 6.875 11.25 L 19.375 11.25 C 19.71875 11.25 20 10.96875 20 10.625 L 20 9.375 C 20 9.03125 19.71875 8.75 19.375 8.75 Z M 19.375 8.75 "/>
</g>
</svg>
