<?xml version="1.0" encoding="UTF-8"?>
<svg xmlns="http://www.w3.org/2000/svg" xmlns:xlink="http://www.w3.org/1999/xlink" width="17px" height="15px" viewBox="0 0 16 15" version="1.1">
<g id="surface1">
<path style=" stroke:none;fill-rule:nonzero;fill:red;fill-opacity:1;" d="M 14.667969 0.9375 L 1.332031 0.9375 C 0.597656 0.9375 0 1.566406 0 2.34375 L 0 12.65625 C 0 13.433594 0.597656 14.0625 1.332031 14.0625 L 14.667969 14.0625 C 15.402344 14.0625 16 13.433594 16 12.65625 L 16 2.34375 C 16 1.566406 15.402344 0.9375 14.667969 0.9375 Z M 14.667969 12.65625 L 1.332031 12.65625 L 1.332031 2.34375 L 14.667969 2.34375 Z M 5.777344 7.5 C 6.757812 7.5 7.554688 6.660156 7.554688 5.625 C 7.554688 4.589844 6.757812 3.75 5.777344 3.75 C 4.796875 3.75 4 4.589844 4 5.625 C 4 6.660156 4.796875 7.5 5.777344 7.5 Z M 3.289062 11.25 L 8.265625 11.25 C 8.609375 11.25 8.890625 11 8.890625 10.6875 L 8.890625 10.125 C 8.890625 9.195312 8.054688 8.4375 7.023438 8.4375 C 6.722656 8.4375 6.503906 8.671875 5.777344 8.671875 C 5.03125 8.671875 4.851562 8.4375 4.535156 8.4375 C 3.503906 8.4375 2.667969 9.195312 2.667969 10.125 L 2.667969 10.6875 C 2.667969 11 2.945312 11.25 3.289062 11.25 Z M 10 9.375 L 13.109375 9.375 C 13.234375 9.375 13.332031 9.269531 13.332031 9.140625 L 13.332031 8.671875 C 13.332031 8.542969 13.234375 8.4375 13.109375 8.4375 L 10 8.4375 C 9.878906 8.4375 9.777344 8.542969 9.777344 8.671875 L 9.777344 9.140625 C 9.777344 9.269531 9.878906 9.375 10 9.375 Z M 10 7.5 L 13.109375 7.5 C 13.234375 7.5 13.332031 7.394531 13.332031 7.265625 L 13.332031 6.796875 C 13.332031 6.667969 13.234375 6.5625 13.109375 6.5625 L 10 6.5625 C 9.878906 6.5625 9.777344 6.667969 9.777344 6.796875 L 9.777344 7.265625 C 9.777344 7.394531 9.878906 7.5 10 7.5 Z M 10 5.625 L 13.109375 5.625 C 13.234375 5.625 13.332031 5.519531 13.332031 5.390625 L 13.332031 4.921875 C 13.332031 4.792969 13.234375 4.6875 13.109375 4.6875 L 10 4.6875 C 9.878906 4.6875 9.777344 4.792969 9.777344 4.921875 L 9.777344 5.390625 C 9.777344 5.519531 9.878906 5.625 10 5.625 Z M 10 5.625 "/>
</g>
</svg>
