<?xml version="1.0" encoding="UTF-8"?>
<svg xmlns="http://www.w3.org/2000/svg" xmlns:xlink="http://www.w3.org/1999/xlink" width="15px" height="15px" viewBox="0 0 15 15" version="1.1">
<g id="surface1">
<path style=" stroke:none;fill-rule:nonzero;fill:red;fill-opacity:1;" d="M 13.78125 0.0429688 L 4.40625 2.8125 C 4.015625 2.933594 3.75 3.296875 3.75 3.707031 L 3.75 11.363281 C 3.441406 11.289062 3.128906 11.25 2.8125 11.25 C 1.257812 11.25 0 12.089844 0 13.125 C 0 14.160156 1.257812 15 2.8125 15 C 4.367188 15 5.625 14.160156 5.625 13.125 L 5.625 6.277344 L 13.125 4.082031 L 13.125 9.488281 C 12.816406 9.414062 12.503906 9.375 12.1875 9.375 C 10.632812 9.375 9.375 10.214844 9.375 11.25 C 9.375 12.285156 10.632812 13.125 12.1875 13.125 C 13.742188 13.125 15 12.285156 15 11.25 L 15 0.9375 C 15 0.640625 14.855469 0.359375 14.617188 0.183594 C 14.375 0.00390625 14.066406 -0.046875 13.78125 0.0429688 Z M 13.78125 0.0429688 "/>
</g>
</svg>
