<?xml version="1.0" encoding="UTF-8"?>
<svg xmlns="http://www.w3.org/2000/svg" xmlns:xlink="http://www.w3.org/1999/xlink" width="13px" height="15px" viewBox="0 0 13 14" version="1.1">
<g id="surface1">
<path style=" stroke:none;fill-rule:nonzero;fill:#fff;fill-opacity:1;" d="M 4.179688 13.097656 L 1.394531 13.097656 C 0.625 13.097656 0 12.507812 0 11.785156 L 0 2.160156 C 0 1.4375 0.625 0.847656 1.394531 0.847656 L 4.179688 0.847656 C 4.949219 0.847656 5.570312 1.4375 5.570312 2.160156 L 5.570312 11.785156 C 5.570312 12.507812 4.949219 13.097656 4.179688 13.097656 Z M 13 11.785156 L 13 2.160156 C 13 1.4375 12.375 0.847656 11.605469 0.847656 L 8.820312 0.847656 C 8.050781 0.847656 7.429688 1.4375 7.429688 2.160156 L 7.429688 11.785156 C 7.429688 12.507812 8.050781 13.097656 8.820312 13.097656 L 11.605469 13.097656 C 12.375 13.097656 13 12.507812 13 11.785156 Z M 13 11.785156 "/>
</g>
</svg>
