<?xml version="1.0" encoding="UTF-8"?>
<svg xmlns="http://www.w3.org/2000/svg" xmlns:xlink="http://www.w3.org/1999/xlink" width="15px" height="15px" viewBox="0 0 15 15" version="1.1">
<g id="surface1">
<path style=" stroke:none;fill-rule:nonzero;fill:#fff;fill-opacity:1;" d="M 7.511719 0.234375 C 9.453125 0.238281 11.21875 1.003906 12.519531 2.246094 L 13.566406 1.199219 C 14.007812 0.757812 14.765625 1.070312 14.765625 1.699219 L 14.765625 5.625 C 14.765625 6.011719 14.449219 6.328125 14.0625 6.328125 L 10.136719 6.328125 C 9.507812 6.328125 9.195312 5.570312 9.636719 5.128906 L 10.859375 3.90625 C 9.957031 3.058594 8.785156 2.589844 7.542969 2.578125 C 4.835938 2.554688 2.554688 4.746094 2.578125 7.542969 C 2.601562 10.195312 4.75 12.421875 7.5 12.421875 C 8.703125 12.421875 9.84375 11.992188 10.742188 11.203125 C 10.878906 11.082031 11.089844 11.089844 11.21875 11.21875 L 12.382812 12.382812 C 12.523438 12.523438 12.519531 12.757812 12.367188 12.894531 C 11.082031 14.058594 9.371094 14.765625 7.5 14.765625 C 3.488281 14.765625 0.234375 11.511719 0.234375 7.5 C 0.234375 3.492188 3.503906 0.226562 7.511719 0.234375 Z M 7.511719 0.234375 "/>
</g>
</svg>
