<?xml version="1.0" encoding="UTF-8"?>
<svg xmlns="http://www.w3.org/2000/svg" xmlns:xlink="http://www.w3.org/1999/xlink" width="11px" height="11px" viewBox="0 0 11 11" version="1.1">
<g id="surface1">
<path style=" stroke:none;fill-rule:nonzero;fill:#fff;fill-opacity:1;" d="M 5.5 0.6875 C 2.460938 0.6875 0 2.6875 0 5.15625 C 0 6.222656 0.460938 7.195312 1.226562 7.964844 C 0.957031 9.046875 0.0585938 10.011719 0.046875 10.023438 C 0 10.070312 -0.0117188 10.144531 0.015625 10.210938 C 0.0429688 10.273438 0.101562 10.3125 0.171875 10.3125 C 1.597656 10.3125 2.664062 9.628906 3.191406 9.207031 C 3.894531 9.472656 4.675781 9.625 5.5 9.625 C 8.539062 9.625 11 7.625 11 5.15625 C 11 2.6875 8.539062 0.6875 5.5 0.6875 Z M 2.753906 6.53125 L 2.492188 6.53125 C 2.398438 6.53125 2.320312 6.453125 2.320312 6.359375 L 2.320312 6.015625 C 2.320312 5.921875 2.398438 5.84375 2.492188 5.84375 L 2.757812 5.84375 C 2.886719 5.84375 2.980469 5.769531 2.980469 5.703125 C 2.980469 5.675781 2.960938 5.644531 2.933594 5.621094 L 2.464844 5.214844 C 2.28125 5.0625 2.179688 4.839844 2.179688 4.613281 C 2.179688 4.15625 2.585938 3.785156 3.089844 3.785156 L 3.351562 3.785156 C 3.445312 3.785156 3.523438 3.859375 3.523438 3.957031 L 3.523438 4.300781 C 3.523438 4.394531 3.445312 4.472656 3.351562 4.472656 L 3.085938 4.472656 C 2.957031 4.472656 2.863281 4.546875 2.863281 4.613281 C 2.863281 4.640625 2.882812 4.671875 2.910156 4.695312 L 3.378906 5.097656 C 3.5625 5.253906 3.664062 5.472656 3.664062 5.703125 C 3.667969 6.160156 3.257812 6.53125 2.753906 6.53125 Z M 6.875 6.359375 C 6.875 6.453125 6.796875 6.53125 6.703125 6.53125 L 6.359375 6.53125 C 6.265625 6.53125 6.1875 6.453125 6.1875 6.359375 L 6.1875 4.894531 L 5.65625 6.09375 C 5.59375 6.21875 5.410156 6.21875 5.347656 6.09375 L 4.8125 4.894531 L 4.8125 6.359375 C 4.8125 6.453125 4.734375 6.53125 4.640625 6.53125 L 4.296875 6.53125 C 4.203125 6.53125 4.125 6.453125 4.125 6.359375 L 4.125 4.125 C 4.125 3.9375 4.28125 3.78125 4.46875 3.78125 L 4.8125 3.78125 C 4.945312 3.78125 5.0625 3.855469 5.121094 3.96875 L 5.5 4.730469 L 5.878906 3.96875 C 5.9375 3.855469 6.058594 3.78125 6.1875 3.78125 L 6.53125 3.78125 C 6.71875 3.78125 6.875 3.9375 6.875 4.125 Z M 7.914062 6.53125 L 7.648438 6.53125 C 7.554688 6.53125 7.476562 6.453125 7.476562 6.359375 L 7.476562 6.015625 C 7.476562 5.921875 7.554688 5.84375 7.648438 5.84375 L 7.914062 5.84375 C 8.042969 5.84375 8.136719 5.769531 8.136719 5.703125 C 8.136719 5.675781 8.117188 5.644531 8.089844 5.621094 L 7.621094 5.214844 C 7.4375 5.0625 7.335938 4.839844 7.335938 4.613281 C 7.335938 4.15625 7.742188 3.785156 8.246094 3.785156 L 8.507812 3.785156 C 8.601562 3.785156 8.679688 3.859375 8.679688 3.957031 L 8.679688 4.300781 C 8.679688 4.394531 8.601562 4.472656 8.507812 4.472656 L 8.242188 4.472656 C 8.113281 4.472656 8.019531 4.546875 8.019531 4.613281 C 8.019531 4.640625 8.039062 4.671875 8.066406 4.695312 L 8.535156 5.097656 C 8.71875 5.253906 8.820312 5.472656 8.820312 5.703125 C 8.824219 6.160156 8.414062 6.53125 7.914062 6.53125 Z M 7.914062 6.53125 "/>
</g>
</svg>
