<?xml version="1.0" encoding="UTF-8"?>
<svg xmlns="http://www.w3.org/2000/svg" xmlns:xlink="http://www.w3.org/1999/xlink" width="19px" height="20px" viewBox="0 0 19 19" version="1.1">
<g id="surface1">
<path style=" stroke:none;fill-rule:nonzero;fill:rgb(7, 163, 235);fill-opacity:1;" d="M 9.5 0.296875 C 4.253906 0.296875 0 4.414062 0 9.5 C 0 14.585938 4.253906 18.703125 9.5 18.703125 C 14.746094 18.703125 19 14.585938 19 9.5 C 19 4.414062 14.746094 0.296875 9.5 0.296875 Z M 14.164062 6.601562 L 12.605469 13.71875 C 12.492188 14.222656 12.179688 14.347656 11.75 14.109375 L 9.375 12.414062 L 8.226562 13.480469 C 8.101562 13.605469 7.996094 13.707031 7.75 13.707031 L 7.917969 11.367188 L 12.320312 7.515625 C 12.511719 7.351562 12.277344 7.257812 12.023438 7.421875 L 6.585938 10.738281 L 4.242188 10.03125 C 3.730469 9.875 3.71875 9.539062 4.347656 9.300781 L 13.507812 5.878906 C 13.933594 5.730469 14.304688 5.976562 14.164062 6.601562 Z M 14.164062 6.601562 "/>
</g>
</svg>
