<?xml version="1.0" encoding="UTF-8"?>
<svg xmlns="http://www.w3.org/2000/svg" xmlns:xlink="http://www.w3.org/1999/xlink" width="17px" height="15px" viewBox="0 0 16 15" version="1.1">
<g id="surface1">
<path style=" stroke:none;fill-rule:nonzero;fill:#fff;fill-opacity:1;" d="M 5.972656 2.082031 L 3.5 4.6875 L 0.667969 4.6875 C 0.296875 4.6875 0 5.003906 0 5.390625 L 0 9.609375 C 0 9.996094 0.296875 10.3125 0.667969 10.3125 L 3.5 10.3125 L 5.972656 12.917969 C 6.390625 13.359375 7.109375 13.050781 7.109375 12.421875 L 7.109375 2.578125 C 7.109375 1.949219 6.390625 1.640625 5.972656 2.082031 Z M 12.453125 0.585938 C 12.144531 0.371094 11.726562 0.460938 11.523438 0.789062 C 11.320312 1.117188 11.40625 1.554688 11.714844 1.769531 C 13.558594 3.042969 14.65625 5.1875 14.65625 7.5 C 14.65625 9.8125 13.558594 11.957031 11.714844 13.230469 C 11.40625 13.445312 11.320312 13.882812 11.523438 14.210938 C 11.71875 14.523438 12.132812 14.636719 12.453125 14.414062 C 14.675781 12.878906 16 10.292969 16 7.5 C 16 4.707031 14.675781 2.121094 12.453125 0.585938 Z M 13.332031 7.5 C 13.332031 5.640625 12.441406 3.925781 10.949219 2.921875 C 10.640625 2.714844 10.226562 2.8125 10.03125 3.140625 C 9.832031 3.472656 9.925781 3.910156 10.238281 4.117188 C 11.339844 4.863281 12 6.125 12 7.5 C 12 8.875 11.339844 10.136719 10.238281 10.882812 C 9.925781 11.089844 9.832031 11.527344 10.03125 11.859375 C 10.210938 12.164062 10.617188 12.300781 10.949219 12.078125 C 12.441406 11.074219 13.332031 9.363281 13.332031 7.5 Z M 9.394531 5.246094 C 9.074219 5.0625 8.667969 5.183594 8.488281 5.523438 C 8.3125 5.863281 8.429688 6.292969 8.75 6.480469 C 9.109375 6.6875 9.332031 7.078125 9.332031 7.5 C 9.332031 7.921875 9.109375 8.3125 8.753906 8.519531 C 8.429688 8.707031 8.3125 9.136719 8.488281 9.476562 C 8.667969 9.816406 9.074219 9.9375 9.394531 9.753906 C 10.179688 9.296875 10.667969 8.433594 10.667969 7.5 C 10.667969 6.566406 10.179688 5.703125 9.394531 5.246094 Z M 9.394531 5.246094 "/>
</g>
</svg>
