<?xml version="1.0" standalone="no"?>
<!DOCTYPE svg PUBLIC "-//W3C//DTD SVG 20010904//EN"
 "http://www.w3.org/TR/2001/REC-SVG-20010904/DTD/svg10.dtd">
<svg version="1.0" xmlns="http://www.w3.org/2000/svg"
 width="1280.000000pt" height="1280.000000pt" viewBox="0 0 1280.000000 1280.000000"
 preserveAspectRatio="xMidYMid meet">
<metadata>
Created by potrace 1.14, written by Peter Selinger 2001-2017
</metadata>
<g transform="translate(0.000000,1280.000000) scale(0.100000,-0.100000)"
fill="#000000" stroke="none">
<path d="M3320 12790 c-25 -5 -58 -11 -75 -14 -16 -3 -42 -8 -57 -11 -15 -3
-38 -9 -52 -15 -13 -5 -27 -6 -30 -3 -3 4 -6 0 -6 -7 0 -7 -3 -11 -6 -7 -15
15 -207 -76 -323 -153 -80 -54 -251 -206 -251 -224 0 -4 -11 -17 -25 -30 -14
-13 -25 -28 -25 -33 0 -6 -7 -16 -15 -23 -27 -22 -102 -165 -139 -263 -34 -91
-47 -140 -64 -242 -4 -22 -7 -2443 -7 -5380 0 -4383 2 -5350 13 -5397 7 -32
13 -59 12 -60 -1 -5 48 -143 68 -190 11 -25 18 -49 15 -52 -4 -3 -1 -6 5 -6 6
0 14 -10 18 -22 3 -12 26 -50 50 -85 24 -35 44 -66 44 -68 0 -14 216 -235 230
-235 3 0 22 -13 40 -30 18 -16 40 -30 47 -30 7 0 13 -4 13 -10 0 -5 7 -10 15
-10 8 0 15 -5 15 -11 0 -5 4 -8 9 -4 5 3 12 1 16 -5 15 -24 251 -120 332 -135
57 -10 79 -15 103 -22 14 -4 1398 -9 3075 -10 3117 -2 3105 -2 3245 32 14 3
36 8 50 11 13 3 29 9 36 15 6 5 14 6 17 2 4 -3 12 -1 19 4 7 6 24 14 38 18 45
13 206 94 220 110 7 8 17 15 22 15 9 0 49 28 108 75 55 45 179 178 216 232 21
32 42 60 45 63 3 3 12 19 21 35 8 17 27 53 41 80 28 54 83 212 91 260 3 17 9
48 13 70 10 49 10 10708 1 10750 -4 17 -10 44 -13 60 -27 150 -120 350 -226
486 -42 54 -153 166 -203 204 -15 11 -32 25 -39 30 -6 6 -30 22 -52 35 -22 13
-42 27 -45 30 -6 8 -165 84 -205 98 -16 5 -39 13 -50 18 -11 4 -31 9 -44 11
-14 2 -32 8 -40 12 -9 5 -35 12 -59 16 -23 4 -54 9 -70 13 -42 9 -6131 11
-6182 2z m596 -1190 c13 5 26 6 28 1 3 -4 26 -5 51 -1 25 4 48 3 51 -1 2 -5
16 -4 29 1 13 5 27 6 29 1 3 -4 26 -5 51 -1 25 4 48 3 51 -1 2 -5 16 -4 29 1
13 5 27 6 29 1 3 -4 26 -5 51 -1 25 4 48 3 51 -1 2 -5 16 -4 29 1 13 5 27 6
29 1 3 -4 26 -5 51 -1 25 4 48 3 51 -1 2 -5 16 -4 29 1 13 5 27 6 29 1 3 -4
26 -5 51 -1 25 4 48 3 51 -1 2 -5 16 -4 29 1 13 5 27 6 29 1 3 -4 26 -5 51 -1
25 4 48 3 51 -1 2 -5 16 -4 29 1 13 5 27 6 29 1 3 -4 26 -5 51 -1 25 4 48 3
51 -1 2 -5 16 -4 29 1 13 5 26 6 29 2 3 -5 30 -5 60 -2 31 3 56 3 56 0 0 -6
36 -5 50 0 3 1 9 2 14 1 28 -6 76 -7 76 -2 0 3 21 5 47 4 27 -1 48 -2 48 -3 0
-6 47 -5 51 1 2 5 15 4 27 0 14 -5 30 -5 40 0 9 6 17 6 17 1 0 -4 25 -5 55 -2
30 3 55 3 55 0 0 -6 36 -5 50 0 3 1 9 2 14 1 28 -6 76 -7 76 -2 0 3 21 5 47 4
27 -1 48 -2 48 -3 0 -6 47 -5 51 1 2 5 15 4 27 0 14 -5 30 -5 40 0 9 6 17 6
17 1 0 -4 25 -5 55 -2 30 3 55 3 55 0 0 -6 36 -5 50 0 3 1 9 2 14 1 28 -6 76
-7 76 -2 0 3 21 5 47 4 27 -1 48 -2 48 -3 0 -6 47 -5 51 1 2 5 15 4 27 0 14
-5 30 -5 40 0 9 6 17 6 17 1 0 -4 25 -5 55 -2 30 3 55 3 55 0 0 -6 36 -5 50 0
3 1 9 2 14 1 28 -6 76 -7 76 -2 0 3 21 5 47 4 27 -1 48 -2 48 -3 0 -6 47 -5
51 1 2 5 15 4 27 0 14 -5 30 -5 40 0 9 6 17 6 17 1 0 -4 25 -5 55 -2 30 3 55
3 55 0 0 -6 36 -5 50 0 3 1 9 2 14 1 28 -6 76 -7 76 -2 0 3 21 5 47 4 27 -1
48 -2 48 -3 0 -6 47 -5 51 1 2 5 15 4 27 0 14 -5 30 -5 40 0 9 6 17 6 17 1 0
-4 23 -6 50 -2 28 4 53 3 56 -2 3 -4 13 -4 23 1 9 5 23 6 30 2 7 -5 30 -5 52
-1 22 4 42 4 45 -1 2 -4 16 -4 29 1 13 5 27 6 29 1 3 -4 26 -5 51 -1 25 4 48
3 51 -1 2 -5 16 -4 29 1 13 5 27 6 29 1 3 -4 26 -5 51 -1 25 4 48 3 51 -1 2
-5 16 -4 29 1 13 5 27 6 29 1 3 -4 26 -5 51 -1 25 4 48 3 51 -1 2 -5 16 -4 29
1 13 5 27 6 29 1 3 -4 26 -5 51 -1 25 4 48 3 51 -1 2 -5 16 -4 29 1 13 5 27 6
29 1 3 -4 26 -5 51 -1 25 4 48 3 51 -1 2 -5 16 -4 29 1 13 5 27 6 29 1 3 -4
26 -5 51 -1 25 4 48 3 51 -1 2 -5 16 -4 29 1 13 5 27 6 29 1 3 -4 26 -5 51 -1
25 4 48 3 51 -1 2 -5 16 -4 29 1 13 5 27 5 30 1 3 -5 20 -5 39 -1 19 4 37 6
39 4 2 -3 28 -7 57 -9 105 -9 201 -80 246 -181 l26 -59 0 -3955 0 -3955 -25
-57 c-47 -105 -142 -173 -256 -184 -82 -8 -130 -8 -137 -1 -3 3 -17 2 -30 -3
-14 -6 -26 -6 -29 0 -3 6 -15 6 -30 0 -15 -6 -27 -6 -30 0 -3 6 -15 6 -30 0
-15 -6 -27 -6 -30 0 -3 6 -15 6 -30 0 -15 -6 -27 -6 -30 0 -3 6 -15 6 -30 0
-15 -6 -27 -6 -30 0 -3 6 -15 6 -30 0 -15 -6 -27 -6 -30 0 -3 6 -15 6 -30 0
-15 -6 -27 -6 -30 0 -3 6 -15 6 -30 0 -15 -6 -27 -6 -30 0 -3 6 -15 6 -30 0
-15 -6 -27 -6 -30 0 -3 6 -15 6 -30 0 -15 -6 -27 -6 -30 0 -3 5 -15 6 -29 0
-12 -4 -29 -4 -36 0 -8 5 -21 5 -30 0 -9 -5 -22 -5 -30 0 -8 5 -21 5 -30 0 -9
-5 -22 -5 -30 0 -8 5 -21 5 -30 0 -9 -5 -22 -5 -30 0 -8 5 -18 6 -24 3 -12 -8
-182 -6 -195 1 -5 4 -12 2 -16 -3 -3 -7 -15 -7 -30 -1 -15 6 -27 6 -30 -1 -4
-5 -11 -7 -16 -4 -14 9 -90 12 -95 3 -3 -4 -15 -3 -28 2 -12 4 -29 4 -36 0 -8
-5 -21 -5 -29 0 -8 4 -25 4 -38 -1 -13 -5 -25 -4 -28 1 -3 5 -18 5 -35 0 -17
-5 -30 -5 -30 0 0 5 -13 5 -28 0 -16 -4 -36 -4 -45 1 -9 6 -18 5 -22 0 -3 -6
-15 -7 -29 -1 -12 4 -29 4 -36 0 -8 -5 -21 -5 -29 0 -8 4 -25 4 -38 -1 -13 -5
-25 -4 -28 1 -3 5 -18 5 -35 0 -17 -5 -30 -5 -30 0 0 5 -6 7 -14 4 -21 -8
-106 -10 -106 -2 0 4 -13 3 -30 -2 -17 -5 -30 -5 -30 0 0 5 -12 5 -28 1 -15
-5 -37 -5 -49 0 -13 5 -25 4 -28 -1 -3 -6 -15 -6 -30 0 -15 6 -27 6 -30 0 -3
-6 -15 -6 -30 0 -15 6 -27 6 -30 0 -3 -6 -15 -6 -30 0 -15 6 -27 6 -30 0 -3
-6 -15 -6 -30 0 -15 6 -27 6 -30 0 -3 -6 -15 -6 -30 0 -15 6 -27 6 -30 0 -3
-6 -15 -6 -30 0 -15 6 -27 6 -30 0 -3 -6 -15 -6 -30 0 -15 6 -27 6 -30 0 -3
-6 -15 -6 -30 0 -15 6 -27 6 -30 0 -3 -6 -15 -6 -30 0 -15 6 -27 6 -30 0 -3
-6 -15 -6 -30 0 -15 6 -27 6 -30 0 -3 -6 -15 -6 -30 0 -15 6 -27 6 -30 0 -3
-6 -15 -6 -30 0 -15 6 -27 6 -30 0 -3 -6 -15 -6 -30 0 -15 6 -27 6 -30 0 -3
-6 -15 -6 -30 0 -15 6 -27 6 -30 0 -3 -5 -15 -6 -28 -1 -12 5 -32 5 -44 0 -13
-5 -25 -4 -28 1 -3 6 -15 6 -29 0 -13 -5 -27 -6 -30 -3 -3 3 -24 6 -46 6 -22
0 -43 -3 -46 -6 -3 -3 -16 -2 -28 3 -13 4 -29 4 -36 0 -8 -5 -21 -5 -29 0 -8
4 -25 4 -38 -1 -13 -5 -25 -4 -28 1 -3 5 -18 5 -35 0 -17 -5 -30 -5 -30 0 0 5
-13 5 -28 0 -16 -4 -36 -4 -45 1 -9 6 -18 5 -22 0 -3 -6 -15 -7 -29 -1 -12 4
-29 4 -36 0 -8 -5 -21 -5 -29 0 -8 4 -25 4 -38 -1 -13 -5 -25 -4 -28 1 -3 5
-18 5 -35 0 -19 -5 -30 -5 -30 1 0 6 -4 7 -10 4 -13 -8 -108 -11 -116 -3 -3 4
-17 3 -30 -2 -14 -6 -26 -6 -29 0 -3 6 -15 6 -30 0 -15 -6 -27 -6 -30 0 -3 6
-15 6 -30 0 -15 -6 -27 -6 -30 0 -3 6 -15 6 -30 0 -15 -6 -27 -6 -30 0 -3 6
-15 6 -30 0 -15 -6 -27 -6 -30 0 -3 6 -15 6 -30 0 -15 -6 -27 -6 -30 0 -3 6
-15 6 -30 0 -15 -6 -27 -6 -30 0 -3 6 -15 6 -30 0 -15 -6 -27 -6 -30 0 -3 6
-15 6 -30 0 -15 -6 -27 -6 -30 0 -3 6 -15 6 -30 0 -15 -6 -27 -6 -30 0 -3 5
-15 6 -29 0 -12 -4 -29 -4 -36 0 -8 5 -21 5 -30 0 -9 -5 -22 -5 -30 0 -8 5
-21 5 -30 0 -9 -5 -22 -5 -30 0 -8 5 -21 5 -30 0 -9 -5 -22 -5 -30 0 -8 5 -18
6 -24 3 -12 -8 -182 -6 -195 1 -5 4 -12 2 -16 -3 -3 -7 -15 -7 -30 -1 -15 6
-27 6 -30 -1 -4 -5 -11 -7 -16 -3 -9 5 -83 8 -104 4 -5 -1 -14 -1 -20 0 -5 1
-23 4 -40 7 -44 7 -106 39 -147 75 -33 31 -95 118 -83 118 3 0 0 10 -6 22 -9
17 -12 966 -12 3963 0 2167 4 3956 8 3975 21 102 113 199 215 227 8 3 46 7 85
9 38 3 72 7 74 10 3 2 9 0 14 -5 6 -6 19 -6 33 -1z m2652 -9214 c7 -4 25 -10
40 -12 78 -14 217 -79 302 -141 67 -49 199 -195 200 -220 0 -6 3 -13 8 -15 20
-9 89 -174 97 -236 3 -15 7 -38 10 -52 6 -28 7 -175 2 -205 -3 -11 -7 -36 -11
-55 -3 -19 -8 -44 -10 -56 -7 -32 -55 -143 -82 -185 -13 -21 -24 -43 -24 -49
0 -5 -3 -10 -7 -10 -5 0 -21 -20 -38 -45 -16 -24 -33 -45 -36 -45 -3 0 -30
-22 -59 -50 -29 -28 -57 -50 -61 -50 -4 0 -14 -7 -22 -15 -25 -24 -207 -111
-207 -98 0 3 -6 1 -12 -4 -18 -14 -102 -33 -178 -39 -217 -18 -407 35 -587
163 -64 45 -165 151 -193 201 -9 15 -23 38 -32 52 -18 26 -80 170 -73 170 2 0
-3 28 -11 62 -14 61 -20 208 -9 258 2 14 7 39 11 55 18 88 85 238 131 291 14
16 32 41 41 57 9 15 19 27 22 27 4 0 31 23 60 50 29 28 57 50 61 50 4 0 14 7
22 15 22 22 154 86 207 100 3 1 12 5 20 8 51 22 148 34 271 32 74 -1 141 -5
147 -9z"/>
</g>
</svg>
